<svg xmlns="http://www.w3.org/2000/svg" viewBox="0 0 402 545"><g id="Layer_2" data-name="Layer 2"><g id="Layer_1-2" data-name="Layer 1"><path d="M384.51,301.08a174.29,174.29,0,0,0-45.16-54.82c-1.12-.92-2.26-1.82-3.4-2.71C361,217.14,375,183.62,375,149c0-41.27-19.93-81-54.68-108.95C288.24,14.22,246.22,0,202,0S115.76,14.22,83.68,40.05C48.93,68,29,107.73,29,149c0,34.23,13.71,67.39,38.21,93.66q-2.31,1.77-4.56,3.6a174.29,174.29,0,0,0-45.16,54.82,152.53,152.53,0,0,0,0,141.84,174.29,174.29,0,0,0,45.16,54.82C100.06,528.22,149.2,545,201,545s100.94-16.78,138.35-47.26a174.29,174.29,0,0,0,45.16-54.82,152.53,152.53,0,0,0,0-141.84ZM146.38,118c14.17-11.41,34.44-18,55.62-18s41.45,6.54,55.62,18C264.11,123.17,275,134.15,275,149s-10.89,25.83-17.38,31.05C243.45,191.46,223.18,198,202,198s-41.45-6.54-55.62-17.95C139.89,174.83,129,163.85,129,149S139.89,123.17,146.38,118ZM201,445c-54.75,0-101-33.43-101-73s46.25-73,101-73,101,33.43,101,73S255.75,445,201,445Z"/></g></g></svg>