<svg xmlns="http://www.w3.org/2000/svg" viewBox="0 0 399.55 546.75"><g id="Layer_2" data-name="Layer 2"><g id="Layer_1-2" data-name="Layer 1"><path d="M337.47,300.47a174.78,174.78,0,0,0,44.8-55.18,154.61,154.61,0,0,0,0-142.15,175.52,175.52,0,0,0-44.86-55.23C300,17,251,0,199.3,0L0,1,.55,546.3l100-.1-.2-198h70l113.89,198.5H399.55v0L277.79,334.52A204.2,204.2,0,0,0,337.47,300.47ZM100.25,248.25,100.1,100.5l99.3-.5c54.3,0,100.15,34,100.15,74.25,0,17.94-9.16,35.4-25.79,49.14-19.11,15.8-46.16,24.86-74.21,24.86Z"/></g></g></svg>