<svg xmlns="http://www.w3.org/2000/svg" viewBox="0 0 400 545"><g id="Layer_2" data-name="Layer 2"><g id="Layer_1-2" data-name="Layer 1"><path d="M200,545c-51.6,0-100.52-16.82-137.77-47.36A174.19,174.19,0,0,1,17.35,442.8,153.12,153.12,0,0,1,0,372H100c0,39.57,45.79,73,100,73s100-33.43,100-73c0-11.18-2.63-26-23.11-41.69-19.21-14.68-48.87-25.95-85.76-32.6-42.84-7.73-80-22.51-107.4-42.75-17.14-12.66-30.68-27.49-40.24-44.08A122.48,122.48,0,0,1,27,149c0-41.27,19.93-81,54.68-108.95C113.76,14.22,155.78,0,200,0s86.24,14.22,118.32,40.05C353.07,68,373,107.73,373,149H273c0-14.85-10.89-25.83-17.38-31-14.17-11.41-34.44-18-55.62-18s-41.45,6.54-55.62,18C137.89,123.17,127,134.15,127,149c0,24.55,41.12,42.95,81.87,50.29,53.2,9.59,96.52,26.94,128.74,51.57C378.43,282.06,400,324,400,372a153.12,153.12,0,0,1-17.35,70.8,174.19,174.19,0,0,1-44.88,54.84C300.52,528.18,251.6,545,200,545Z"/></g></g></svg>