<svg xmlns="http://www.w3.org/2000/svg" viewBox="0 0 401.99 545"><g id="Layer_2" data-name="Layer 2"><g id="Layer_1-2" data-name="Layer 1"><path d="M402,371a154,154,0,0,1-17.42,71.16,175,175,0,0,1-45.08,55.16C302.05,528.07,252.87,545,201,545S99.93,528.07,62.49,497.32a175,175,0,0,1-45.08-55.16A154,154,0,0,1,0,372H100c.33,17.53,9.51,34.55,25.94,48,19.31,15.86,46.67,25,75,25s55.73-9.1,75-25c16.74-13.75,26-31.16,26-49s-9.22-35.29-26-49c-16.33-13.41-38.4-22-62-24.31-4-.4-89-.62-93.06-.64V198c3.92,0,88.8-.22,92.62-.66,16.85-1.93,32.45-8,44-17.29C264.1,174.83,275,163.85,275,149s-10.89-25.83-17.38-31c-14.17-11.41-34.44-18-55.62-18s-41.45,6.54-55.62,18C139.88,123.17,129,134.15,129,149H29c0-41.27,19.93-81,54.68-108.95C115.75,14.22,157.77,0,202,0s86.24,14.22,118.32,40.05C355.06,68,375,107.73,375,149c0,34.19-13.68,67.32-38.12,93.57.88.69,1.75,1.4,2.62,2.11a175,175,0,0,1,45.08,55.16A154,154,0,0,1,402,371Z"/></g></g></svg>