<svg xmlns="http://www.w3.org/2000/svg" viewBox="0 0 400 544"><g id="Layer_2" data-name="Layer 2"><g id="Layer_1-2" data-name="Layer 1"><path d="M200,544c-28.34,0-54.38-4.8-77.39-14.25A167.22,167.22,0,0,1,54.86,478.7C17.94,432.46,0,364.85,0,272S17.94,111.54,54.86,65.3a167.22,167.22,0,0,1,67.75-51C145.62,4.8,171.66,0,200,0s54.38,4.8,77.39,14.25A167.22,167.22,0,0,1,345.14,65.3C382.06,111.54,400,179.15,400,272s-17.94,160.46-54.86,206.7a167.22,167.22,0,0,1-67.75,51.05C254.38,539.2,228.34,544,200,544Zm0-444c-40.23,0-57.5,15.81-67,27.7-21.6,27-33,76.94-33,144.3s11.41,117.26,33,144.3c9.49,11.89,26.76,27.7,67,27.7s57.5-15.81,67-27.7c21.6-27,33-76.94,33-144.3s-11.41-117.26-33-144.3C257.5,115.81,240.23,100,200,100Z"/></g></g></svg>